<svg id="visual" viewBox="0 0 900 600" width="900" height="600" xmlns="http://www.w3.org/2000/svg" xmlns:xlink="http://www.w3.org/1999/xlink" version="1.1"><rect x="0" y="0" width="900" height="600" fill="#001220"></rect><defs><linearGradient id="grad1_0" x1="33.3%" y1="0%" x2="100%" y2="100%"><stop offset="20%" stop-color="#15bf9a" stop-opacity="1"></stop><stop offset="80%" stop-color="#15bf9a" stop-opacity="1"></stop></linearGradient></defs><defs><linearGradient id="grad1_1" x1="33.3%" y1="0%" x2="100%" y2="100%"><stop offset="20%" stop-color="#15bf9a" stop-opacity="1"></stop><stop offset="80%" stop-color="#00a094" stop-opacity="1"></stop></linearGradient></defs><defs><linearGradient id="grad1_2" x1="33.3%" y1="0%" x2="100%" y2="100%"><stop offset="20%" stop-color="#008187" stop-opacity="1"></stop><stop offset="80%" stop-color="#00a094" stop-opacity="1"></stop></linearGradient></defs><defs><linearGradient id="grad1_3" x1="33.3%" y1="0%" x2="100%" y2="100%"><stop offset="20%" stop-color="#008187" stop-opacity="1"></stop><stop offset="80%" stop-color="#006374" stop-opacity="1"></stop></linearGradient></defs><defs><linearGradient id="grad1_4" x1="33.3%" y1="0%" x2="100%" y2="100%"><stop offset="20%" stop-color="#00465b" stop-opacity="1"></stop><stop offset="80%" stop-color="#006374" stop-opacity="1"></stop></linearGradient></defs><defs><linearGradient id="grad1_5" x1="33.3%" y1="0%" x2="100%" y2="100%"><stop offset="20%" stop-color="#00465b" stop-opacity="1"></stop><stop offset="80%" stop-color="#002b3e" stop-opacity="1"></stop></linearGradient></defs><defs><linearGradient id="grad1_6" x1="33.3%" y1="0%" x2="100%" y2="100%"><stop offset="20%" stop-color="#001220" stop-opacity="1"></stop><stop offset="80%" stop-color="#002b3e" stop-opacity="1"></stop></linearGradient></defs><defs><linearGradient id="grad2_0" x1="0%" y1="0%" x2="66.7%" y2="100%"><stop offset="20%" stop-color="#15bf9a" stop-opacity="1"></stop><stop offset="80%" stop-color="#15bf9a" stop-opacity="1"></stop></linearGradient></defs><defs><linearGradient id="grad2_1" x1="0%" y1="0%" x2="66.7%" y2="100%"><stop offset="20%" stop-color="#00a094" stop-opacity="1"></stop><stop offset="80%" stop-color="#15bf9a" stop-opacity="1"></stop></linearGradient></defs><defs><linearGradient id="grad2_2" x1="0%" y1="0%" x2="66.7%" y2="100%"><stop offset="20%" stop-color="#00a094" stop-opacity="1"></stop><stop offset="80%" stop-color="#008187" stop-opacity="1"></stop></linearGradient></defs><defs><linearGradient id="grad2_3" x1="0%" y1="0%" x2="66.7%" y2="100%"><stop offset="20%" stop-color="#006374" stop-opacity="1"></stop><stop offset="80%" stop-color="#008187" stop-opacity="1"></stop></linearGradient></defs><defs><linearGradient id="grad2_4" x1="0%" y1="0%" x2="66.7%" y2="100%"><stop offset="20%" stop-color="#006374" stop-opacity="1"></stop><stop offset="80%" stop-color="#00465b" stop-opacity="1"></stop></linearGradient></defs><defs><linearGradient id="grad2_5" x1="0%" y1="0%" x2="66.7%" y2="100%"><stop offset="20%" stop-color="#002b3e" stop-opacity="1"></stop><stop offset="80%" stop-color="#00465b" stop-opacity="1"></stop></linearGradient></defs><defs><linearGradient id="grad2_6" x1="0%" y1="0%" x2="66.7%" y2="100%"><stop offset="20%" stop-color="#002b3e" stop-opacity="1"></stop><stop offset="80%" stop-color="#001220" stop-opacity="1"></stop></linearGradient></defs><g transform="translate(900, 0)"><path d="M0 540.8C-25.4 535.1 -50.8 529.3 -74.9 520.6C-98.9 512 -121.6 500.4 -144.5 492.2C-167.5 484.1 -190.7 479.4 -217.7 476.6C-244.6 473.9 -275.2 473.2 -291.4 453.4C-307.6 433.7 -309.3 395 -322.2 371.8C-335.1 348.7 -359.2 341 -375.6 325.5C-392 309.9 -400.7 286.5 -418.1 268.7C-435.5 250.9 -461.6 238.9 -483.9 221C-506.3 203.1 -524.9 179.3 -518.9 152.4C-513 125.4 -482.5 95.2 -482 69.3C-481.6 43.4 -511.2 21.7 -540.8 0L0 0Z" fill="#011e2f"></path><path d="M0 463.6C-21.8 458.6 -43.6 453.7 -64.2 446.3C-84.8 438.8 -104.2 428.9 -123.9 421.9C-143.6 414.9 -163.5 410.9 -186.6 408.6C-209.7 406.2 -235.9 405.6 -249.8 388.7C-263.6 371.7 -265.1 338.6 -276.2 318.7C-287.2 298.8 -307.9 292.3 -321.9 279C-336 265.6 -343.5 245.5 -358.4 230.3C-373.3 215.1 -395.6 204.8 -414.8 189.4C-433.9 174.1 -449.9 153.7 -444.8 130.6C-439.7 107.5 -413.6 81.6 -413.2 59.4C-412.8 37.2 -438.2 18.6 -463.6 0L0 0Z" fill="#00384d"></path><path d="M0 386.3C-18.1 382.2 -36.3 378.1 -53.5 371.9C-70.6 365.7 -86.8 357.4 -103.2 351.6C-119.6 345.8 -136.2 342.4 -155.5 340.5C-174.7 338.5 -196.6 338 -208.1 323.9C-219.7 309.8 -220.9 282.1 -230.1 265.6C-239.4 249 -256.6 243.6 -268.3 232.5C-280 221.4 -286.2 204.6 -298.6 191.9C-311.1 179.2 -329.7 170.6 -345.7 157.9C-361.6 145.1 -374.9 128.1 -370.7 108.8C-366.4 89.6 -344.6 68 -344.3 49.5C-344 31 -365.2 15.5 -386.3 0L0 0Z" fill="#005468"></path><path d="M0 309C-14.5 305.8 -29 302.5 -42.8 297.5C-56.5 292.6 -69.5 285.9 -82.6 281.3C-95.7 276.6 -109 273.9 -124.4 272.4C-139.8 270.8 -157.3 270.4 -166.5 259.1C-175.8 247.8 -176.7 225.7 -184.1 212.5C-191.5 199.2 -205.3 194.9 -214.6 186C-224 177.1 -229 163.7 -238.9 153.5C-248.9 143.4 -263.8 136.5 -276.5 126.3C-289.3 116.1 -299.9 102.5 -296.5 87.1C-293.1 71.7 -275.7 54.4 -275.5 39.6C-275.2 24.8 -292.1 12.4 -309 0L0 0Z" fill="#00727e"></path><path d="M0 231.8C-10.9 229.3 -21.8 226.9 -32.1 223.1C-42.4 219.4 -52.1 214.4 -61.9 211C-71.8 207.5 -81.7 205.4 -93.3 204.3C-104.8 203.1 -118 202.8 -124.9 194.3C-131.8 185.9 -132.6 169.3 -138.1 159.4C-143.6 149.4 -153.9 146.2 -161 139.5C-168 132.8 -171.7 122.8 -179.2 115.2C-186.6 107.5 -197.8 102.4 -207.4 94.7C-217 87 -224.9 76.9 -222.4 65.3C-219.8 53.7 -206.8 40.8 -206.6 29.7C-206.4 18.6 -219.1 9.3 -231.8 0L0 0Z" fill="#00908e"></path><path d="M0 154.5C-7.3 152.9 -14.5 151.2 -21.4 148.8C-28.3 146.3 -34.7 143 -41.3 140.6C-47.9 138.3 -54.5 137 -62.2 136.2C-69.9 135.4 -78.6 135.2 -83.3 129.6C-87.9 123.9 -88.4 112.9 -92.1 106.2C-95.7 99.6 -102.6 97.4 -107.3 93C-112 88.5 -114.5 81.8 -119.5 76.8C-124.4 71.7 -131.9 68.3 -138.3 63.1C-144.6 58 -150 51.2 -148.3 43.5C-146.6 35.8 -137.9 27.2 -137.7 19.8C-137.6 12.4 -146.1 6.2 -154.5 0L0 0Z" fill="#00b098"></path><path d="M0 77.3C-3.6 76.4 -7.3 75.6 -10.7 74.4C-14.1 73.1 -17.4 71.5 -20.6 70.3C-23.9 69.2 -27.2 68.5 -31.1 68.1C-34.9 67.7 -39.3 67.6 -41.6 64.8C-43.9 62 -44.2 56.4 -46 53.1C-47.9 49.8 -51.3 48.7 -53.7 46.5C-56 44.3 -57.2 40.9 -59.7 38.4C-62.2 35.8 -65.9 34.1 -69.1 31.6C-72.3 29 -75 25.6 -74.1 21.8C-73.3 17.9 -68.9 13.6 -68.9 9.9C-68.8 6.2 -73 3.1 -77.3 0L0 0Z" fill="#15bf9a"></path></g><g transform="translate(0, 600)"><path d="M0 -540.8C26 -536.6 52 -532.4 74.9 -520.6C97.7 -508.9 117.3 -489.7 142.8 -486.5C168.4 -483.2 200 -495.8 221.8 -485.7C243.7 -475.6 255.9 -442.8 268.7 -418.1C281.5 -393.4 295 -376.9 319.6 -368.8C344.2 -360.7 379.9 -361.1 401.3 -347.7C422.7 -334.4 429.7 -307.3 444.2 -285.5C458.6 -263.6 480.5 -247.1 492 -224.7C503.5 -202.3 504.6 -174.1 502.8 -147.6C500.9 -121.2 496 -96.5 501.8 -72.2C507.7 -47.8 524.3 -23.9 540.8 0L0 0Z" fill="#011e2f"></path><path d="M0 -463.6C22.3 -459.9 44.6 -456.3 64.2 -446.3C83.7 -436.2 100.5 -419.8 122.4 -417C144.4 -414.2 171.4 -425 190.1 -416.4C208.9 -407.7 219.3 -379.5 230.3 -358.4C241.3 -337.2 252.8 -323 273.9 -316.1C295 -309.2 325.6 -309.5 344 -298.1C362.3 -286.6 368.4 -263.4 380.7 -244.7C393.1 -226 411.8 -211.8 421.7 -192.6C431.5 -173.4 432.5 -149.2 430.9 -126.5C429.4 -103.9 425.1 -82.7 430.1 -61.8C435.2 -41 449.4 -20.5 463.6 0L0 0Z" fill="#00384d"></path><path d="M0 -386.3C18.6 -383.3 37.2 -380.3 53.5 -371.9C69.8 -363.5 83.8 -349.8 102 -347.5C120.3 -345.1 142.8 -354.2 158.5 -347C174.1 -339.7 182.8 -316.3 191.9 -298.6C201.1 -281 210.7 -269.2 228.3 -263.4C245.8 -257.7 271.4 -257.9 286.6 -248.4C301.9 -238.8 307 -219.5 317.3 -203.9C327.6 -188.3 343.2 -176.5 351.4 -160.5C359.6 -144.5 360.5 -124.3 359.1 -105.4C357.8 -86.6 354.3 -68.9 358.5 -51.5C362.6 -34.2 374.5 -17.1 386.3 0L0 0Z" fill="#005468"></path><path d="M0 -309C14.9 -306.6 29.7 -304.2 42.8 -297.5C55.8 -290.8 67 -279.8 81.6 -278C96.2 -276.1 114.3 -283.3 126.8 -277.6C139.3 -271.8 146.2 -253 153.5 -238.9C160.9 -224.8 168.6 -215.4 182.6 -210.7C196.7 -206.1 217.1 -206.3 229.3 -198.7C241.5 -191.1 245.6 -175.6 253.8 -163.1C262.1 -150.6 274.5 -141.2 281.1 -128.4C287.7 -115.6 288.4 -99.5 287.3 -84.4C286.2 -69.2 283.4 -55.1 286.8 -41.2C290.1 -27.3 299.6 -13.7 309 0L0 0Z" fill="#00727e"></path><path d="M0 -231.8C11.2 -230 22.3 -228.2 32.1 -223.1C41.9 -218.1 50.3 -209.9 61.2 -208.5C72.2 -207.1 85.7 -212.5 95.1 -208.2C104.4 -203.8 109.7 -189.8 115.2 -179.2C120.7 -168.6 126.4 -161.5 137 -158.1C147.5 -154.6 162.8 -154.8 172 -149C181.2 -143.3 184.2 -131.7 190.4 -122.3C196.6 -113 205.9 -105.9 210.8 -96.3C215.8 -86.7 216.3 -74.6 215.5 -63.3C214.7 -51.9 212.6 -41.3 215.1 -30.9C217.6 -20.5 224.7 -10.3 231.8 0L0 0Z" fill="#00908e"></path><path d="M0 -154.5C7.4 -153.3 14.9 -152.1 21.4 -148.8C27.9 -145.4 33.5 -139.9 40.8 -139C48.1 -138.1 57.1 -141.7 63.4 -138.8C69.6 -135.9 73.1 -126.5 76.8 -119.5C80.4 -112.4 84.3 -107.7 91.3 -105.4C98.3 -103.1 108.5 -103.2 114.7 -99.4C120.8 -95.5 122.8 -87.8 126.9 -81.6C131 -75.3 137.3 -70.6 140.6 -64.2C143.8 -57.8 144.2 -49.7 143.6 -42.2C143.1 -34.6 141.7 -27.6 143.4 -20.6C145.1 -13.7 149.8 -6.8 154.5 0L0 0Z" fill="#00b098"></path><path d="M0 -77.3C3.7 -76.7 7.4 -76.1 10.7 -74.4C14 -72.7 16.8 -70 20.4 -69.5C24.1 -69 28.6 -70.8 31.7 -69.4C34.8 -67.9 36.6 -63.3 38.4 -59.7C40.2 -56.2 42.1 -53.8 45.7 -52.7C49.2 -51.5 54.3 -51.6 57.3 -49.7C60.4 -47.8 61.4 -43.9 63.5 -40.8C65.5 -37.7 68.6 -35.3 70.3 -32.1C71.9 -28.9 72.1 -24.9 71.8 -21.1C71.6 -17.3 70.9 -13.8 71.7 -10.3C72.5 -6.8 74.9 -3.4 77.3 0L0 0Z" fill="#15bf9a"></path></g></svg>